<mxfile host="app.diagrams.net" modified="2021-04-19T05:33:23.197Z" agent="5.0 (Macintosh; Intel Mac OS X 10_15_7) AppleWebKit/537.36 (KHTML, like Gecko) Chrome/89.0.4389.128 Safari/537.36" etag="lo3ICg9UVOW7DYFA4O0W" version="14.4.9" type="github">
  <diagram id="uJ5HbdYwElgQysuxE3tf" name="第 1 页">
    <mxGraphModel dx="1298" dy="727" grid="1" gridSize="10" guides="1" tooltips="1" connect="1" arrows="1" fold="1" page="1" pageScale="1" pageWidth="827" pageHeight="1169" math="0" shadow="0">
      <root>
        <mxCell id="0" />
        <mxCell id="1" parent="0" />
        <mxCell id="rcwyM_evg1Bho7f190p_-3" value="" style="shape=flexArrow;endArrow=classic;html=1;fillColor=#FF3333;strokeColor=none;" edge="1" parent="1">
          <mxGeometry width="50" height="50" relative="1" as="geometry">
            <mxPoint x="360" y="279" as="sourcePoint" />
            <mxPoint x="520" y="279" as="targetPoint" />
            <Array as="points">
              <mxPoint x="440" y="279" />
            </Array>
          </mxGeometry>
        </mxCell>
        <mxCell id="rcwyM_evg1Bho7f190p_-4" value="" style="shape=flexArrow;endArrow=classic;html=1;strokeColor=#FF3333;fillColor=#FF3333;" edge="1" parent="1">
          <mxGeometry width="50" height="50" relative="1" as="geometry">
            <mxPoint x="520" y="600" as="sourcePoint" />
            <mxPoint x="360" y="600" as="targetPoint" />
            <Array as="points">
              <mxPoint x="280" y="600" />
            </Array>
          </mxGeometry>
        </mxCell>
        <mxCell id="rcwyM_evg1Bho7f190p_-7" value="" style="rounded=1;whiteSpace=wrap;html=1;fillColor=#FF3333;strokeColor=none;" vertex="1" parent="1">
          <mxGeometry x="360" y="320" width="160" height="260" as="geometry" />
        </mxCell>
        <mxCell id="rcwyM_evg1Bho7f190p_-8" value="动销商品" style="rounded=1;whiteSpace=wrap;html=1;fontColor=#ffffff;fillColor=#A9C4EB;strokeColor=none;" vertex="1" parent="1">
          <mxGeometry x="360" y="320" width="160" height="180" as="geometry" />
        </mxCell>
        <mxCell id="rcwyM_evg1Bho7f190p_-11" value="&lt;font color=&quot;#ffffff&quot;&gt;未动销商品&lt;/font&gt;" style="text;html=1;resizable=0;autosize=1;align=center;verticalAlign=middle;points=[];fillColor=none;strokeColor=none;rounded=0;" vertex="1" parent="1">
          <mxGeometry x="400" y="520" width="80" height="20" as="geometry" />
        </mxCell>
        <mxCell id="rcwyM_evg1Bho7f190p_-12" value="促销商品池" style="text;html=1;resizable=0;autosize=1;align=center;verticalAlign=middle;points=[];fillColor=none;strokeColor=none;rounded=0;" vertex="1" parent="1">
          <mxGeometry x="400" y="290" width="80" height="20" as="geometry" />
        </mxCell>
        <mxCell id="rcwyM_evg1Bho7f190p_-13" value="价格健康限制促销提报" style="text;html=1;resizable=0;autosize=1;align=center;verticalAlign=middle;points=[];fillColor=none;strokeColor=none;rounded=0;" vertex="1" parent="1">
          <mxGeometry x="380" y="620" width="140" height="20" as="geometry" />
        </mxCell>
        <mxCell id="rcwyM_evg1Bho7f190p_-14" value="设置促销导致促销价格波动" style="text;html=1;resizable=0;autosize=1;align=center;verticalAlign=middle;points=[];fillColor=none;strokeColor=none;rounded=0;" vertex="1" parent="1">
          <mxGeometry x="360" y="240" width="160" height="20" as="geometry" />
        </mxCell>
        <mxCell id="rcwyM_evg1Bho7f190p_-23" value="" style="group" vertex="1" connectable="0" parent="1">
          <mxGeometry x="240" y="280" width="80" height="320" as="geometry" />
        </mxCell>
        <mxCell id="rcwyM_evg1Bho7f190p_-1" value="促销优化" style="rounded=1;whiteSpace=wrap;html=1;fontColor=#ffffff;fillColor=#FF3333;strokeColor=none;" vertex="1" parent="rcwyM_evg1Bho7f190p_-23">
          <mxGeometry width="80" height="320" as="geometry" />
        </mxCell>
        <mxCell id="rcwyM_evg1Bho7f190p_-16" value="动销率" style="rounded=1;whiteSpace=wrap;html=1;fillColor=#b0e3e6;strokeColor=#0e8088;" vertex="1" parent="rcwyM_evg1Bho7f190p_-23">
          <mxGeometry y="30" width="80" height="40" as="geometry" />
        </mxCell>
        <mxCell id="rcwyM_evg1Bho7f190p_-17" value="GMV" style="rounded=1;whiteSpace=wrap;html=1;fillColor=#b0e3e6;strokeColor=#0e8088;" vertex="1" parent="rcwyM_evg1Bho7f190p_-23">
          <mxGeometry y="90" width="80" height="40" as="geometry" />
        </mxCell>
        <mxCell id="rcwyM_evg1Bho7f190p_-18" value="拉新量" style="rounded=1;whiteSpace=wrap;html=1;fillColor=#b0e3e6;strokeColor=#0e8088;" vertex="1" parent="rcwyM_evg1Bho7f190p_-23">
          <mxGeometry y="180" width="80" height="40" as="geometry" />
        </mxCell>
        <mxCell id="rcwyM_evg1Bho7f190p_-19" value="流量" style="rounded=1;whiteSpace=wrap;html=1;fillColor=#b0e3e6;strokeColor=#0e8088;" vertex="1" parent="rcwyM_evg1Bho7f190p_-23">
          <mxGeometry y="250" width="80" height="40" as="geometry" />
        </mxCell>
        <mxCell id="rcwyM_evg1Bho7f190p_-25" value="" style="group;gradientColor=#ffd966;fillColor=#fff2cc;strokeColor=#d6b656;" vertex="1" connectable="0" parent="1">
          <mxGeometry x="560" y="280" width="80" height="320" as="geometry" />
        </mxCell>
        <mxCell id="rcwyM_evg1Bho7f190p_-2" value="&lt;font color=&quot;#ffffff&quot;&gt;价格健康&lt;/font&gt;" style="rounded=1;whiteSpace=wrap;html=1;fillColor=#FF3333;strokeColor=none;" vertex="1" parent="rcwyM_evg1Bho7f190p_-25">
          <mxGeometry width="80" height="320" as="geometry" />
        </mxCell>
        <mxCell id="rcwyM_evg1Bho7f190p_-20" value="价高占比" style="rounded=1;whiteSpace=wrap;html=1;fillColor=#b0e3e6;strokeColor=#0e8088;" vertex="1" parent="rcwyM_evg1Bho7f190p_-25">
          <mxGeometry y="30" width="80" height="40" as="geometry" />
        </mxCell>
        <mxCell id="rcwyM_evg1Bho7f190p_-21" value="价格波动" style="rounded=1;whiteSpace=wrap;html=1;fillColor=#b0e3e6;strokeColor=#0e8088;" vertex="1" parent="rcwyM_evg1Bho7f190p_-25">
          <mxGeometry y="90" width="80" height="40" as="geometry" />
        </mxCell>
        <mxCell id="rcwyM_evg1Bho7f190p_-22" value="提价促销" style="rounded=1;whiteSpace=wrap;html=1;fillColor=#b0e3e6;strokeColor=#0e8088;" vertex="1" parent="rcwyM_evg1Bho7f190p_-25">
          <mxGeometry y="180" width="80" height="40" as="geometry" />
        </mxCell>
        <mxCell id="rcwyM_evg1Bho7f190p_-26" value="1.价低真实促销" style="rounded=1;whiteSpace=wrap;html=1;strokeColor=#d6b656;fillColor=#fff2cc;gradientColor=#ffd966;" vertex="1" parent="1">
          <mxGeometry x="390" y="330" width="100" height="30" as="geometry" />
        </mxCell>
        <mxCell id="rcwyM_evg1Bho7f190p_-27" value="3.价低提价促销" style="rounded=1;whiteSpace=wrap;html=1;strokeColor=#d6b656;fillColor=#fff2cc;gradientColor=#ffd966;" vertex="1" parent="1">
          <mxGeometry x="390" y="420" width="100" height="30" as="geometry" />
        </mxCell>
        <mxCell id="rcwyM_evg1Bho7f190p_-28" value="2.价高真实促销" style="rounded=1;whiteSpace=wrap;html=1;strokeColor=#d6b656;fillColor=#fff2cc;gradientColor=#ffd966;" vertex="1" parent="1">
          <mxGeometry x="390" y="370" width="100" height="30" as="geometry" />
        </mxCell>
        <mxCell id="rcwyM_evg1Bho7f190p_-29" value="4.价高提价促销" style="rounded=1;whiteSpace=wrap;html=1;strokeColor=#d6b656;fillColor=#fff2cc;gradientColor=#ffd966;" vertex="1" parent="1">
          <mxGeometry x="390" y="460" width="100" height="30" as="geometry" />
        </mxCell>
      </root>
    </mxGraphModel>
  </diagram>
</mxfile>
